<?xml version="1.0" encoding="utf-8"?>
<!-- Generator: Adobe Illustrator 24.2.3, SVG Export Plug-In . SVG Version: 6.00 Build 0)  -->
<svg version="1.1" id="Layer_1" xmlns="http://www.w3.org/2000/svg" xmlns:xlink="http://www.w3.org/1999/xlink" x="0px" y="0px"
	 viewBox="0 0 344.65 99.18" style="enable-background:new 0 0 344.65 99.18;" xml:space="preserve">
<style type="text/css">
	.st0{fill:#FFFFFF;}
	.st1{stroke:#FFFFFF;stroke-miterlimit:10;}
	.st2{fill:#ED1C24;}
</style>
<g>
	<path class="st0" d="M514.04,47.03c1.64,4.04,4.16,6.5,7.97,7.49c1.58,0.41,3.27,0.51,4.91,0.52c6.62,0.05,13.24,0.07,19.86-0.03
		c2.25-0.04,3.18,0.79,3.06,3.04c-0.1,2.04-0.04,4.1,0.02,6.15c0.06,1.97-0.87,2.99-2.79,2.99c-8.43,0-16.88,0.25-25.3-0.13
		c-10.78-0.48-19.03-8.07-21.27-18.89c-2.63-12.69,4.35-25.51,16.19-29.74c12.88-4.6,26.83,0.8,32.11,12.42
		c1.98,4.37,2.27,8.98,2,13.66c-0.12,1.98-1.41,2.57-3.25,2.56c-10.17-0.04-20.34-0.03-30.51-0.03
		C516.19,47.03,515.35,47.03,514.04,47.03z M514.28,37.2c3.99,0,7.75,0,11.52,0c3.74,0,7.47,0,11.31,0
		c-1.58-5.09-5.72-7.87-11.33-7.87C520.44,29.32,515.86,32.33,514.28,37.2z"/>
	<path class="st0" d="M410.81,67.16c-4.73,0-9.46,0.02-14.19-0.01c-2.71-0.02-3.36-0.7-3.38-3.34c-0.01-1.89,0.09-3.79,0-5.68
		c-0.12-2.27,0.93-3.1,3.1-3.09c8.2,0.04,16.4-0.01,24.6,0.02c1.59,0.01,3.19,0.01,3.39-2.01c0.21-2.1-1.29-2.87-3.08-3.18
		c-5.67-0.97-11.38-1.74-17-2.91c-10.81-2.26-15.36-15.46-8.42-24.16c2.4-3.01,5.64-4.6,9.45-4.63c8.99-0.09,17.98-0.01,26.96-0.02
		c1.83,0,2.78,0.82,2.76,2.71c-0.02,2.21,0,4.42,0.04,6.62c0.04,1.99-0.92,2.84-2.89,2.83c-7.25-0.05-14.51-0.05-21.76-0.08
		c-0.55,0-1.24-0.21-1.63,0.04c-0.97,0.62-2.41,1.38-2.51,2.21c-0.1,0.83,1.07,2.43,1.94,2.64c3.59,0.87,7.27,1.32,10.92,1.96
		c2.71,0.47,5.46,0.84,8.12,1.53c6.67,1.74,9.99,6.15,10.06,13.06c0.04,3.41,0.03,6.78-1.97,9.8c-2.63,3.97-6.43,5.65-11.06,5.69
		c-4.49,0.03-8.99,0.01-13.48,0.01C410.81,67.17,410.81,67.17,410.81,67.16z"/>
	<path class="st0" d="M570.25,21.04c11.3-6.13,23.09-4.57,30.88,3.83c4.06,4.38,5.84,9.69,5.94,15.54
		c0.14,7.88,0.08,15.77,0.08,23.65c0,2.38-0.73,3.07-3.12,3.07c-2.44,0-4.89,0-7.33-0.04c-2.64-0.04-3.2-0.6-3.21-3.2
		c-0.01-7.41,0.03-14.82-0.02-22.23c-0.05-6.23-4.23-10.88-10.26-11.57c-5.97-0.68-11.43,3.24-12.75,9.23
		c-0.23,1.06-0.23,2.19-0.24,3.29c-0.02,7.02-0.02,14.03-0.02,21.05c0,2.79-0.7,3.53-3.45,3.54c-2.44,0.01-4.89-0.04-7.33-0.03
		c-1.97,0.01-2.81-0.92-2.81-2.91c0.03-14.27,0.01-28.54,0.02-42.81c0-2.69,0.6-3.26,3.4-3.29c2.37-0.02,4.73,0.08,7.09-0.04
		C569.14,18.04,570.38,18.65,570.25,21.04z"/>
	<path class="st0" d="M627.15,18.15c4.44,0,8.59-0.01,12.75,0c3.28,0.01,3.47,0.21,3.44,3.52c-0.02,2.13-0.05,4.26-0.03,6.39
		c0.02,1.99-0.87,2.82-2.89,2.79c-4.32-0.08-8.65-0.02-13.04-0.02c0,5.25-0.4,10.39,0.11,15.43c0.52,5.07,5,8.45,10.15,8.37
		c6.24-0.09,5.68-0.1,5.69,5.83c0,1.42,0.3,2.9-0.03,4.24c-0.23,0.94-1.17,2.23-2.01,2.42c-10.48,2.38-22.1-3.79-25.98-13.93
		c-0.99-2.59-1.48-5.52-1.52-8.3c-0.17-12.61-0.11-25.23-0.12-37.85c0-3.08,0.48-3.54,3.59-3.56c2.37-0.01,4.73,0.03,7.1,0
		c1.97-0.02,2.85,0.86,2.81,2.87C627.09,10.19,627.15,14.03,627.15,18.15z"/>
	<path class="st0" d="M663.96,22.63c4.05-3.52,8.7-4.68,13.68-4.87c2.78-0.1,3.41,0.49,3.42,3.19c0.01,2.21,0.01,4.41-0.02,6.62
		c-0.04,2.47-0.92,3.22-3.43,3.5c-2.02,0.22-4.14,0.4-5.99,1.14c-5.65,2.28-7.95,6.87-7.97,12.75c-0.02,6.23,0.03,12.46,0.06,18.68
		c0.01,2.81-0.46,3.37-3.21,3.45c-2.36,0.07-4.73,0.07-7.09,0.05c-2.8-0.02-3.28-0.51-3.28-3.35c0-13.16,0.02-26.33,0-39.49
		c-0.01-6.35-0.67-6.22,6.11-6.13c1.42,0.02,2.84,0.01,4.26,0.01c2.91,0.01,3.17,0.26,3.29,3.24C663.8,21.71,663.87,22,663.96,22.63
		z"/>
	<path class="st0" d="M714.64,61.41c-0.56,0.36-1.07,0.67-1.55,1.01c-5.62,4.03-11.89,5.08-18.55,3.74
		c-6.72-1.36-11.43-6.89-11.76-13.51c-0.38-7.72,3.09-13.5,10.12-15.47c4.5-1.26,9.29-1.43,13.92-2.25
		c1.92-0.34,3.94-0.78,5.62-1.71c3.11-1.73,3.09-5.58-0.05-7.26c-1.54-0.83-3.5-1.17-5.29-1.22c-3.85-0.1-7.44,0.96-10.51,3.42
		c-2.9,2.33-6.59,1.54-7.98-1.98c-0.54-1.37-0.39-3.07-0.34-4.61c0.05-1.56,1.62-1.39,2.58-1.75c3.76-1.43,7.48-3.06,11.37-4.01
		c5.39-1.32,10.88-1.88,16.33,0.24c5.75,2.24,8.55,5.95,8.58,12.12c0.05,11.5,0.04,23,0.05,34.5c0,2.3-0.75,3.06-3.05,3.1
		c-1.51,0.03-3.01,0.02-4.52,0.02C715.54,65.8,715.21,65.52,714.64,61.41z M714.68,42.93c-4.48,0.69-8.95,1.37-13.41,2.07
		c-0.67,0.11-1.34,0.27-1.98,0.49c-2.68,0.9-4.29,3.11-4.16,5.67c0.13,2.63,1.85,4.53,4.7,5.19
		C709.43,58.56,716.12,52.29,714.68,42.93z"/>
	<g>
		<path class="st0" d="M484.69,95.56V78.99h6.75c1.77,0,3.32,0.35,4.65,1.05c1.33,0.7,2.37,1.68,3.11,2.92
			c0.74,1.25,1.11,2.68,1.11,4.31c0,1.63-0.37,3.06-1.11,4.31c-0.74,1.25-1.78,2.22-3.11,2.92c-1.33,0.7-2.88,1.05-4.65,1.05H484.69
			z M486.44,94.05h4.9c1.47,0,2.74-0.29,3.82-0.86s1.92-1.37,2.52-2.39c0.6-1.02,0.9-2.19,0.9-3.52c0-1.34-0.3-2.52-0.9-3.53
			c-0.6-1.01-1.44-1.8-2.52-2.38s-2.36-0.86-3.82-0.86h-4.9V94.05z"/>
		<path class="st0" d="M504.24,95.56V78.99h1.75v16.57H504.24z"/>
		<path class="st0" d="M518.66,95.71c-1.26,0-2.43-0.21-3.49-0.63s-1.99-1.01-2.77-1.76c-0.78-0.76-1.39-1.65-1.82-2.67
			c-0.43-1.03-0.65-2.15-0.65-3.36c0-1.21,0.22-2.34,0.65-3.36c0.43-1.03,1.04-1.92,1.83-2.68c0.79-0.76,1.72-1.34,2.78-1.76
			c1.07-0.42,2.23-0.63,3.49-0.63c1.26,0,2.42,0.2,3.47,0.59c1.05,0.39,1.94,0.99,2.69,1.8l-1.09,1.11
			c-0.69-0.69-1.46-1.19-2.3-1.49c-0.84-0.3-1.74-0.45-2.7-0.45c-1.03,0-1.97,0.17-2.83,0.51c-0.86,0.34-1.61,0.82-2.25,1.44
			c-0.64,0.62-1.14,1.35-1.49,2.18c-0.36,0.83-0.53,1.74-0.53,2.73c0,0.98,0.18,1.89,0.53,2.72c0.35,0.84,0.85,1.57,1.49,2.19
			c0.64,0.62,1.39,1.11,2.25,1.44c0.86,0.34,1.8,0.51,2.81,0.51c0.95,0,1.84-0.14,2.69-0.43c0.84-0.28,1.62-0.77,2.33-1.44
			l0.99,1.33c-0.79,0.69-1.71,1.22-2.77,1.57C520.92,95.53,519.81,95.71,518.66,95.71z M524.74,93.6l-1.68-0.21v-6.11h1.68V93.6z"/>
		<path class="st0" d="M529.69,95.56V78.99h1.75v16.57H529.69z"/>
		<path class="st0" d="M540.06,95.56V80.51h-5.82v-1.52h13.4v1.52h-5.82v15.06H540.06z"/>
		<path class="st0" d="M546.95,95.56l7.58-16.57h1.73l7.58,16.57h-1.85l-6.96-15.55h0.71l-6.96,15.55H546.95z M549.93,91.14
			l0.52-1.42h9.64l0.52,1.42H549.93z"/>
		<path class="st0" d="M566.57,95.56V78.99h1.75v15.06h9.28v1.52H566.57z"/>
		<path class="st0" d="M586.72,95.56V78.99h1.44l7.58,12.93h-0.76l7.5-12.93h1.44v16.57h-1.68V81.62h0.4l-6.91,11.84h-0.83
			l-6.96-11.84h0.45v13.94H586.72z"/>
		<path class="st0" d="M606.68,95.56l7.58-16.57h1.73l7.58,16.57h-1.85l-6.96-15.55h0.71l-6.96,15.55H606.68z M609.66,91.14
			l0.52-1.42h9.64l0.52,1.42H609.66z"/>
		<path class="st0" d="M626.3,95.56V78.99h6.2c2.1,0,3.75,0.5,4.96,1.5c1.21,1,1.81,2.39,1.81,4.18c0,1.17-0.27,2.17-0.82,3.02
			c-0.54,0.84-1.32,1.49-2.33,1.94c-1.01,0.45-2.22,0.67-3.62,0.67h-5.23l0.78-0.8v6.06H626.3z M628.06,89.64l-0.78-0.83h5.18
			c1.66,0,2.92-0.36,3.78-1.09s1.29-1.74,1.29-3.05c0-1.33-0.43-2.35-1.29-3.08s-2.12-1.09-3.78-1.09h-5.18l0.78-0.83V89.64z
			 M637.62,95.56l-4.26-6.01h1.89l4.29,6.01H637.62z"/>
		<path class="st0" d="M643.42,95.56V78.99h1.75v16.57H643.42z M644.94,91.44l-0.07-2.13l10.04-10.32h2.01l-7.32,7.67l-0.99,1.07
			L644.94,91.44z M655.33,95.56l-7.15-8.24l1.18-1.28l8.05,9.52H655.33z"/>
		<path class="st0" d="M660.25,95.56V78.99h11.36v1.52h-9.61v13.54h9.97v1.52H660.25z M661.82,87.89V86.4h8.76v1.49H661.82z"/>
		<path class="st0" d="M679.31,95.56V80.51h-5.82v-1.52h13.4v1.52h-5.82v15.06H679.31z"/>
		<path class="st0" d="M689.68,95.56V78.99h1.75v16.57H689.68z"/>
		<path class="st0" d="M696.83,95.56V78.99h1.44l11.44,14.39h-0.76V78.99h1.73v16.57h-1.44l-11.41-14.39h0.76v14.39H696.83z"/>
		<path class="st0" d="M723.35,95.71c-1.26,0-2.43-0.21-3.49-0.63s-1.99-1.01-2.77-1.76s-1.39-1.65-1.82-2.67
			c-0.43-1.03-0.65-2.15-0.65-3.36c0-1.21,0.22-2.34,0.65-3.36c0.43-1.03,1.05-1.92,1.83-2.68s1.72-1.34,2.78-1.76
			c1.07-0.42,2.23-0.63,3.49-0.63s2.42,0.2,3.47,0.59s1.95,0.99,2.69,1.8l-1.09,1.11c-0.69-0.69-1.46-1.19-2.3-1.49
			c-0.84-0.3-1.74-0.45-2.7-0.45c-1.03,0-1.97,0.17-2.83,0.51c-0.86,0.34-1.61,0.82-2.25,1.44c-0.64,0.62-1.14,1.35-1.49,2.18
			c-0.36,0.83-0.53,1.74-0.53,2.73c0,0.98,0.18,1.89,0.53,2.72c0.35,0.84,0.85,1.57,1.49,2.19c0.64,0.62,1.39,1.11,2.25,1.44
			c0.86,0.34,1.79,0.51,2.81,0.51c0.95,0,1.84-0.14,2.69-0.43c0.84-0.28,1.62-0.77,2.33-1.44l0.99,1.33
			c-0.79,0.69-1.71,1.22-2.77,1.57S724.5,95.71,723.35,95.71z M729.43,93.6l-1.68-0.21v-6.11h1.68V93.6z"/>
	</g>
	<path class="st1" d="M516.47,5.07l-57.71,62.61L516.47,5.07z"/>
	<polygon class="st2" points="437.23,19.25 459.49,18.52 481.99,42.97 458.75,67.67 437.23,67.67 459.49,42.97 	"/>
	<polygon class="st0" points="515.37,5.07 492.99,5.07 471.8,27.83 483.83,40.88 	"/>
	<polygon class="st0" points="504.73,67.67 483.76,44.89 472.88,56.76 483.45,67.67 	"/>
</g>
<g>
	<path d="M125.33,47.03c1.64,4.04,4.16,6.5,7.97,7.49c1.58,0.41,3.27,0.51,4.91,0.52c6.62,0.05,13.24,0.07,19.86-0.03
		c2.25-0.04,3.18,0.79,3.06,3.04c-0.1,2.04-0.04,4.1,0.02,6.15c0.06,1.97-0.87,2.99-2.79,2.99c-8.43,0-16.88,0.25-25.3-0.13
		c-10.78-0.48-19.03-8.07-21.27-18.89c-2.63-12.69,4.35-25.51,16.19-29.74c12.88-4.6,26.83,0.8,32.11,12.42
		c1.98,4.37,2.27,8.98,2,13.66c-0.12,1.98-1.41,2.57-3.25,2.56c-10.17-0.04-20.34-0.03-30.51-0.03
		C127.48,47.03,126.64,47.03,125.33,47.03z M125.57,37.2c3.99,0,7.75,0,11.52,0c3.74,0,7.47,0,11.31,0
		c-1.58-5.09-5.72-7.87-11.33-7.87C131.73,29.32,127.15,32.33,125.57,37.2z"/>
	<path d="M22.11,67.16c-4.73,0-9.46,0.02-14.19-0.01c-2.71-0.02-3.36-0.7-3.38-3.34c-0.01-1.89,0.09-3.79,0-5.68
		c-0.12-2.27,0.93-3.1,3.1-3.09c8.2,0.04,16.4-0.01,24.6,0.02c1.59,0.01,3.19,0.01,3.39-2.01c0.21-2.1-1.29-2.87-3.08-3.18
		c-5.67-0.97-11.38-1.74-17-2.91C4.75,44.71,0.19,31.51,7.13,22.81c2.4-3.01,5.64-4.6,9.45-4.63c8.99-0.09,17.98-0.01,26.96-0.02
		c1.83,0,2.78,0.82,2.76,2.71c-0.02,2.21,0,4.42,0.04,6.62c0.04,1.99-0.92,2.84-2.89,2.83c-7.25-0.05-14.51-0.05-21.76-0.08
		c-0.55,0-1.24-0.21-1.63,0.04c-0.97,0.62-2.41,1.38-2.51,2.21c-0.1,0.83,1.07,2.43,1.94,2.64c3.59,0.87,7.27,1.32,10.92,1.96
		c2.71,0.47,5.46,0.84,8.12,1.53c6.67,1.74,9.99,6.15,10.06,13.06c0.04,3.41,0.03,6.78-1.97,9.8c-2.63,3.97-6.43,5.65-11.06,5.69
		c-4.49,0.03-8.99,0.01-13.48,0.01C22.11,67.17,22.11,67.17,22.11,67.16z"/>
	<path d="M181.55,21.04c11.3-6.13,23.09-4.57,30.88,3.83c4.06,4.38,5.84,9.69,5.94,15.54c0.14,7.88,0.08,15.77,0.08,23.65
		c0,2.38-0.73,3.07-3.12,3.07c-2.44,0-4.89,0-7.33-0.04c-2.64-0.04-3.2-0.6-3.21-3.2c-0.01-7.41,0.03-14.82-0.02-22.23
		c-0.05-6.23-4.23-10.88-10.26-11.57c-5.97-0.68-11.43,3.24-12.75,9.23c-0.23,1.06-0.23,2.19-0.24,3.29
		c-0.02,7.02-0.02,14.03-0.02,21.05c0,2.79-0.7,3.53-3.45,3.54c-2.44,0.01-4.89-0.04-7.33-0.03c-1.97,0.01-2.81-0.92-2.81-2.91
		c0.03-14.27,0.01-28.54,0.02-42.81c0-2.69,0.6-3.26,3.4-3.29c2.37-0.02,4.73,0.08,7.09-0.04
		C180.44,18.04,181.67,18.65,181.55,21.04z"/>
	<path d="M238.44,18.15c4.44,0,8.59-0.01,12.75,0c3.28,0.01,3.47,0.21,3.44,3.52c-0.02,2.13-0.05,4.26-0.03,6.39
		c0.02,1.99-0.87,2.82-2.89,2.79c-4.32-0.08-8.65-0.02-13.04-0.02c0,5.25-0.4,10.39,0.11,15.43c0.52,5.07,5,8.45,10.15,8.37
		c6.24-0.09,5.68-0.1,5.69,5.83c0,1.42,0.3,2.9-0.03,4.24c-0.23,0.94-1.17,2.23-2.01,2.42c-10.48,2.38-22.1-3.79-25.98-13.93
		c-0.99-2.59-1.48-5.52-1.52-8.3c-0.18-12.61-0.11-25.23-0.12-37.85c0-3.08,0.48-3.54,3.59-3.56c2.37-0.01,4.73,0.03,7.1,0
		c1.97-0.02,2.85,0.86,2.81,2.87C238.39,10.19,238.44,14.03,238.44,18.15z"/>
	<path d="M275.26,22.63c4.05-3.52,8.7-4.68,13.68-4.87c2.78-0.1,3.41,0.49,3.42,3.19c0,2.21,0.01,4.41-0.02,6.62
		c-0.04,2.47-0.92,3.22-3.43,3.5c-2.02,0.22-4.14,0.4-5.99,1.14c-5.65,2.28-7.95,6.87-7.97,12.75c-0.02,6.23,0.03,12.46,0.06,18.68
		c0.01,2.81-0.46,3.37-3.21,3.45c-2.36,0.07-4.73,0.07-7.09,0.05c-2.8-0.02-3.28-0.51-3.28-3.35c0-13.16,0.02-26.33,0-39.49
		c-0.01-6.35-0.67-6.22,6.11-6.13c1.42,0.02,2.84,0.01,4.26,0.01c2.91,0.01,3.17,0.26,3.29,3.24
		C275.09,21.71,275.16,22,275.26,22.63z"/>
	<path d="M325.93,61.41c-0.56,0.36-1.07,0.67-1.55,1.01c-5.62,4.03-11.89,5.08-18.55,3.74c-6.72-1.36-11.43-6.89-11.76-13.51
		c-0.38-7.72,3.09-13.5,10.12-15.47c4.5-1.26,9.29-1.43,13.92-2.25c1.92-0.34,3.94-0.78,5.62-1.71c3.11-1.73,3.09-5.58-0.05-7.26
		c-1.54-0.83-3.5-1.17-5.29-1.22c-3.85-0.1-7.44,0.96-10.51,3.42c-2.9,2.33-6.59,1.54-7.98-1.98c-0.54-1.37-0.39-3.07-0.34-4.61
		c0.05-1.56,1.62-1.39,2.58-1.75c3.76-1.43,7.48-3.06,11.37-4.01c5.39-1.32,10.88-1.88,16.33,0.24c5.75,2.24,8.55,5.95,8.58,12.12
		c0.05,11.5,0.04,23,0.05,34.5c0,2.3-0.75,3.06-3.05,3.1c-1.51,0.03-3.01,0.02-4.52,0.02C326.84,65.8,326.51,65.52,325.93,61.41z
		 M325.98,42.93c-4.48,0.69-8.95,1.37-13.41,2.07c-0.67,0.11-1.34,0.27-1.98,0.49c-2.68,0.9-4.29,3.11-4.16,5.67
		c0.13,2.63,1.85,4.53,4.7,5.19C320.73,58.56,327.42,52.29,325.98,42.93z"/>
	<g>
		<path d="M95.98,95.56V78.99h6.75c1.77,0,3.32,0.35,4.65,1.05c1.33,0.7,2.37,1.68,3.11,2.92c0.74,1.25,1.11,2.68,1.11,4.31
			c0,1.63-0.37,3.06-1.11,4.31c-0.74,1.25-1.78,2.22-3.11,2.92c-1.33,0.7-2.88,1.05-4.65,1.05H95.98z M97.73,94.05h4.9
			c1.47,0,2.74-0.29,3.82-0.86s1.92-1.37,2.52-2.39c0.6-1.02,0.9-2.19,0.9-3.52c0-1.34-0.3-2.52-0.9-3.53
			c-0.6-1.01-1.44-1.8-2.52-2.38s-2.36-0.86-3.82-0.86h-4.9V94.05z"/>
		<path d="M115.54,95.56V78.99h1.75v16.57H115.54z"/>
		<path d="M129.95,95.71c-1.26,0-2.43-0.21-3.49-0.63s-1.99-1.01-2.77-1.76s-1.39-1.65-1.82-2.67c-0.43-1.03-0.65-2.15-0.65-3.36
			c0-1.21,0.22-2.34,0.65-3.36c0.43-1.03,1.04-1.92,1.83-2.68c0.79-0.76,1.72-1.34,2.78-1.76c1.07-0.42,2.23-0.63,3.49-0.63
			c1.26,0,2.42,0.2,3.47,0.59c1.05,0.39,1.94,0.99,2.69,1.8l-1.09,1.11c-0.69-0.69-1.46-1.19-2.3-1.49c-0.84-0.3-1.74-0.45-2.7-0.45
			c-1.03,0-1.97,0.17-2.83,0.51c-0.86,0.34-1.61,0.82-2.25,1.44c-0.64,0.62-1.14,1.35-1.49,2.18c-0.36,0.83-0.53,1.74-0.53,2.73
			c0,0.98,0.18,1.89,0.53,2.72c0.35,0.84,0.85,1.57,1.49,2.19c0.64,0.62,1.39,1.11,2.25,1.44c0.86,0.34,1.8,0.51,2.81,0.51
			c0.95,0,1.84-0.14,2.69-0.43c0.84-0.28,1.62-0.77,2.33-1.44l0.99,1.33c-0.79,0.69-1.71,1.22-2.77,1.57
			C132.21,95.53,131.1,95.71,129.95,95.71z M136.04,93.6l-1.68-0.21v-6.11h1.68V93.6z"/>
		<path d="M140.98,95.56V78.99h1.75v16.57H140.98z"/>
		<path d="M151.35,95.56V80.51h-5.82v-1.52h13.4v1.52h-5.82v15.06H151.35z"/>
		<path d="M158.24,95.56l7.58-16.57h1.73l7.58,16.57h-1.85l-6.96-15.55h0.71l-6.96,15.55H158.24z M161.23,91.14l0.52-1.42h9.64
			l0.52,1.42H161.23z"/>
		<path d="M177.87,95.56V78.99h1.75v15.06h9.28v1.52H177.87z"/>
		<path d="M198.02,95.56V78.99h1.44l7.58,12.93h-0.76l7.5-12.93h1.44v16.57h-1.68V81.62h0.4l-6.91,11.84h-0.83l-6.96-11.84h0.45
			v13.94H198.02z"/>
		<path d="M217.97,95.56l7.58-16.57h1.73l7.58,16.57h-1.85l-6.96-15.55h0.71l-6.96,15.55H217.97z M220.96,91.14l0.52-1.42h9.64
			l0.52,1.42H220.96z"/>
		<path d="M237.6,95.56V78.99h6.2c2.1,0,3.75,0.5,4.96,1.5c1.21,1,1.81,2.39,1.81,4.18c0,1.17-0.27,2.17-0.82,3.02
			c-0.54,0.84-1.32,1.49-2.33,1.94c-1.01,0.45-2.22,0.67-3.62,0.67h-5.23l0.78-0.8v6.06H237.6z M239.35,89.64l-0.78-0.83h5.18
			c1.66,0,2.92-0.36,3.78-1.09s1.29-1.74,1.29-3.05c0-1.33-0.43-2.35-1.29-3.08s-2.12-1.09-3.78-1.09h-5.18l0.78-0.83V89.64z
			 M248.92,95.56l-4.26-6.01h1.89l4.29,6.01H248.92z"/>
		<path d="M254.72,95.56V78.99h1.75v16.57H254.72z M256.23,91.44l-0.07-2.13l10.04-10.32h2.01l-7.32,7.67l-0.99,1.07L256.23,91.44z
			 M266.62,95.56l-7.15-8.24l1.18-1.28l8.05,9.52H266.62z"/>
		<path d="M271.55,95.56V78.99h11.36v1.52h-9.61v13.54h9.97v1.52H271.55z M273.11,87.89V86.4h8.76v1.49H273.11z"/>
		<path d="M290.61,95.56V80.51h-5.82v-1.52h13.4v1.52h-5.82v15.06H290.61z"/>
		<path d="M300.98,95.56V78.99h1.75v16.57H300.98z"/>
		<path d="M308.12,95.56V78.99h1.44L321,93.39h-0.76V78.99h1.73v16.57h-1.44l-11.41-14.39h0.76v14.39H308.12z"/>
		<path d="M334.64,95.71c-1.26,0-2.43-0.21-3.49-0.63s-1.99-1.01-2.77-1.76s-1.39-1.65-1.82-2.67c-0.43-1.03-0.65-2.15-0.65-3.36
			c0-1.21,0.22-2.34,0.65-3.36c0.43-1.03,1.05-1.92,1.83-2.68s1.72-1.34,2.78-1.76c1.07-0.42,2.23-0.63,3.49-0.63
			s2.42,0.2,3.47,0.59s1.95,0.99,2.69,1.8l-1.09,1.11c-0.69-0.69-1.46-1.19-2.3-1.49c-0.84-0.3-1.74-0.45-2.7-0.45
			c-1.03,0-1.97,0.17-2.83,0.51c-0.86,0.34-1.61,0.82-2.25,1.44c-0.64,0.62-1.14,1.35-1.49,2.18c-0.36,0.83-0.53,1.74-0.53,2.73
			c0,0.98,0.18,1.89,0.53,2.72c0.35,0.84,0.85,1.57,1.49,2.19c0.64,0.62,1.39,1.11,2.25,1.44c0.86,0.34,1.79,0.51,2.81,0.51
			c0.95,0,1.84-0.14,2.69-0.43c0.84-0.28,1.62-0.77,2.33-1.44l0.99,1.33c-0.79,0.69-1.71,1.22-2.77,1.57S335.79,95.71,334.64,95.71z
			 M340.72,93.6l-1.68-0.21v-6.11h1.68V93.6z"/>
	</g>
	<path class="st1" d="M127.76,5.07L70.05,67.67L127.76,5.07z"/>
	<polygon class="st2" points="48.53,19.25 70.78,18.52 93.28,42.97 70.05,67.67 48.53,67.67 70.78,42.97 	"/>
	<polygon points="126.66,5.07 104.29,5.07 83.1,27.83 95.12,40.88 	"/>
	<polygon points="116.02,67.67 95.05,44.89 84.18,56.76 94.75,67.67 	"/>
</g>
</svg>
